<mxfile host="app.diagrams.net" modified="2024-06-04T12:20:13.388Z" agent="Mozilla/5.0 (Windows NT 10.0; Win64; x64) AppleWebKit/537.36 (KHTML, like Gecko) Chrome/125.0.0.0 Safari/537.36" version="24.3.1" etag="PpU-RAQJtDCsP4NbK3i6" type="github">
  <diagram name="Halaman-1" id="nEcUN2JiGyDhZNxoijP7">
    <mxGraphModel>
      <root>
        <mxCell id="0" />
        <mxCell id="1" parent="0" />
      </root>
    </mxGraphModel>
  </diagram>
</mxfile>
